<svg width="43" height="45" viewBox="0 0 43 45" fill="none" xmlns="http://www.w3.org/2000/svg">
<path d="M6.13602 39.8571H13.9206V24.4286H29.4898V39.8571H37.2744V16.7143L21.7052 5.14286L6.13602 16.7143V39.8571ZM6.13602 45C4.70885 45 3.48667 44.496 2.46948 43.488C1.45229 42.48 0.944564 41.2697 0.946293 39.8571V16.7143C0.946293 15.9 1.13053 15.1286 1.499 14.4C1.86747 13.6714 2.3752 13.0714 3.02219 12.6L18.5914 1.02857C19.0671 0.685714 19.5645 0.428571 20.0834 0.257143C20.6024 0.085714 21.143 0 21.7052 0C22.2674 0 22.808 0.085714 23.327 0.257143C23.846 0.428571 24.3433 0.685714 24.8191 1.02857L40.3882 12.6C41.037 13.0714 41.5456 13.6714 41.914 14.4C42.2825 15.1286 42.4659 15.9 42.4641 16.7143V39.8571C42.4641 41.2714 41.9555 42.4826 40.9384 43.4906C39.9212 44.4986 38.6999 45.0017 37.2744 45H24.3001V29.5714H19.1103V45H6.13602Z" fill="white"/>
</svg>
