<svg width="42" height="42" viewBox="0 0 42 42" fill="none" xmlns="http://www.w3.org/2000/svg">
<path d="M21.0001 21.0003C21.9393 21.0003 22.7436 20.6656 23.413 19.9962C24.0824 19.3268 24.4165 18.5231 24.4154 17.585C24.4154 16.6458 24.0807 15.8415 23.4113 15.1721C22.7419 14.5027 21.9381 14.1686 21.0001 14.1697C20.0609 14.1697 19.2566 14.5044 18.5872 15.1738C17.9178 15.8432 17.5836 16.647 17.5848 17.585C17.5848 18.5242 17.9195 19.3285 18.5889 19.9979C19.2583 20.6673 20.062 21.0015 21.0001 21.0003ZM21.0001 37.4365C20.7724 37.4365 20.5447 37.3938 20.317 37.3084C20.0893 37.223 19.8901 37.1092 19.7193 36.9669C15.564 33.2954 12.4618 29.8869 10.4126 26.7415C8.36346 23.596 7.33887 20.6577 7.33887 17.9266C7.33887 13.6574 8.71239 10.2564 11.4594 7.72335C14.2065 5.19034 17.3867 3.92383 21.0001 3.92383C24.6146 3.92383 27.7954 5.19034 30.5424 7.72335C33.2895 10.2564 34.6624 13.6574 34.6613 17.9266C34.6613 20.6588 33.6367 23.5977 31.5875 26.7432C29.5383 29.8887 26.4361 33.2966 22.2808 36.9669C22.11 37.1092 21.9108 37.223 21.6831 37.3084C21.4554 37.3938 21.2278 37.4365 21.0001 37.4365Z" fill="#FF9934"/>
</svg>
