<svg width="50" height="50" viewBox="0 0 50 50" fill="none" xmlns="http://www.w3.org/2000/svg">
<path d="M39.5833 24.896C39.5833 20.8335 38.1681 17.3877 35.3375 14.5585C32.5069 11.7293 29.0611 10.3141 25 10.3127V6.146C27.6042 6.146 30.0438 6.64114 32.3188 7.63141C34.5938 8.62169 36.5729 9.9585 38.2563 11.6418C39.9396 13.3252 41.2764 15.3043 42.2667 17.5793C43.2569 19.8543 43.7514 22.2932 43.75 24.896H39.5833ZM31.25 24.896C31.25 23.1599 30.6424 21.6842 29.4271 20.4689C28.2118 19.2536 26.7361 18.646 25 18.646V14.4793C27.8819 14.4793 30.3389 15.4953 32.3708 17.5272C34.4028 19.5592 35.4181 22.0154 35.4167 24.896H31.25ZM41.5625 43.7502C37.0833 43.7502 32.7167 42.7606 28.4625 40.7814C24.2083 38.8022 20.441 36.1634 17.1604 32.8647C13.8799 29.5661 11.241 25.7897 9.24375 21.5356C7.24653 17.2814 6.24861 12.9154 6.25 8.43766V7.34391C6.25 6.96197 6.28472 6.59738 6.35417 6.25016H18.5417L20.4688 16.7189L14.5313 22.7085C15.9896 25.2085 17.8215 27.5522 20.0271 29.7397C22.2326 31.9272 24.6542 33.8196 27.2917 35.4168L33.3333 29.3752L43.75 31.4585V43.646C43.4028 43.6807 43.0382 43.7071 42.6562 43.7252C42.2743 43.7432 41.9097 43.7515 41.5625 43.7502Z" fill="#FF9934"/>
</svg>
