<svg class="animated" id="freepik_stories-online-wishes-list" xmlns="http://www.w3.org/2000/svg" viewBox="0 0 500 500" version="1.1" xmlns:xlink="http://www.w3.org/1999/xlink" xmlns:svgjs="http://svgjs.com/svgjs"><style>svg#freepik_stories-online-wishes-list:not(.animated) .animable {opacity: 0;}svg#freepik_stories-online-wishes-list.animated #freepik--background-complete--inject-1 {animation: 1s 1 forwards cubic-bezier(.36,-0.01,.5,1.38) fadeIn;animation-delay: 0s;}svg#freepik_stories-online-wishes-list.animated #freepik--Shadow--inject-1 {animation: 1s 1 forwards cubic-bezier(.36,-0.01,.5,1.38) lightSpeedLeft;animation-delay: 0s;}svg#freepik_stories-online-wishes-list.animated #freepik--Screen--inject-1 {animation: 1s 1 forwards cubic-bezier(.36,-0.01,.5,1.38) slideUp;animation-delay: 0s;}svg#freepik_stories-online-wishes-list.animated #freepik--Character--inject-1 {animation: 1s 1 forwards cubic-bezier(.36,-0.01,.5,1.38) lightSpeedRight;animation-delay: 0s;}svg#freepik_stories-online-wishes-list.animated #freepik--speech-bubble--inject-1 {animation: 1s 1 forwards cubic-bezier(.36,-0.01,.5,1.38) lightSpeedLeft;animation-delay: 0s;}            @keyframes fadeIn {                0% {                    opacity: 0;                }                100% {                    opacity: 1;                }            }                    @keyframes lightSpeedLeft {              from {                transform: translate3d(-50%, 0, 0) skewX(20deg);                opacity: 0;              }              60% {                transform: skewX(-10deg);                opacity: 1;              }              80% {                transform: skewX(2deg);              }              to {                opacity: 1;                transform: translate3d(0, 0, 0);              }            }                    @keyframes slideUp {                0% {                    opacity: 0;                    transform: translateY(30px);                }                100% {                    opacity: 1;                    transform: inherit;                }            }                    @keyframes lightSpeedRight {              from {                transform: translate3d(50%, 0, 0) skewX(-20deg);                opacity: 0;              }              60% {                transform: skewX(10deg);                opacity: 1;              }              80% {                transform: skewX(-2deg);              }              to {                opacity: 1;                transform: translate3d(0, 0, 0);              }            }        </style><g id="freepik--background-complete--inject-1" style="transform-origin: 250px 228.23px 0px;" class="animable"><rect y="382.4" width="500" height="0.25" style="fill: rgb(235, 235, 235); transform-origin: 250px 382.525px 0px;" id="elzfx7zl8e78q" class="animable"></rect><rect x="416.78" y="398.49" width="33.12" height="0.25" style="fill: rgb(235, 235, 235); transform-origin: 433.34px 398.615px 0px;" id="el6rgkkvc78x" class="animable"></rect><rect x="322.53" y="401.21" width="8.69" height="0.25" style="fill: rgb(235, 235, 235); transform-origin: 326.875px 401.335px 0px;" id="elw56py08mavg" class="animable"></rect><rect x="396.59" y="389.21" width="19.19" height="0.25" style="fill: rgb(235, 235, 235); transform-origin: 406.185px 389.335px 0px;" id="el8sseafbr5pj" class="animable"></rect><rect x="52.46" y="390.89" width="43.19" height="0.25" style="fill: rgb(235, 235, 235); transform-origin: 74.055px 391.015px 0px;" id="elldbm7883f6e" class="animable"></rect><rect x="104.56" y="390.89" width="6.33" height="0.25" style="fill: rgb(235, 235, 235); transform-origin: 107.725px 391.015px 0px;" id="el7tiws32a3gb" class="animable"></rect><rect x="131.47" y="395.11" width="93.68" height="0.25" style="fill: rgb(235, 235, 235); transform-origin: 178.31px 395.235px 0px;" id="elw7li7l3msx" class="animable"></rect><path d="M237,337.8H43.91a5.71,5.71,0,0,1-5.7-5.71V60.66A5.71,5.71,0,0,1,43.91,55H237a5.71,5.71,0,0,1,5.71,5.71V332.09A5.71,5.71,0,0,1,237,337.8ZM43.91,55.2a5.46,5.46,0,0,0-5.45,5.46V332.09a5.46,5.46,0,0,0,5.45,5.46H237a5.47,5.47,0,0,0,5.46-5.46V60.66A5.47,5.47,0,0,0,237,55.2Z" style="fill: rgb(235, 235, 235); transform-origin: 140.46px 196.4px 0px;" id="el593tgl30m25" class="animable"></path><path d="M453.31,337.8H260.21a5.72,5.72,0,0,1-5.71-5.71V60.66A5.72,5.72,0,0,1,260.21,55h193.1A5.71,5.71,0,0,1,459,60.66V332.09A5.71,5.71,0,0,1,453.31,337.8ZM260.21,55.2a5.47,5.47,0,0,0-5.46,5.46V332.09a5.47,5.47,0,0,0,5.46,5.46h193.1a5.47,5.47,0,0,0,5.46-5.46V60.66a5.47,5.47,0,0,0-5.46-5.46Z" style="fill: rgb(235, 235, 235); transform-origin: 356.75px 196.4px 0px;" id="el8szbib3k1va" class="animable"></path><g id="eldafi4tple2m"><rect x="306.23" y="98.65" width="143.13" height="147.9" style="fill: rgb(235, 235, 235); transform-origin: 377.795px 172.6px 0px; transform: rotate(180deg);" class="animable"></rect></g><g id="el17dnvi72y9pi"><rect x="301.23" y="98.65" width="143.13" height="147.9" style="fill: rgb(240, 240, 240); transform-origin: 372.795px 172.6px 0px; transform: rotate(180deg);" class="animable"></rect></g><rect x="305.03" y="102.15" width="135.73" height="140.95" style="fill: rgb(224, 224, 224); transform-origin: 372.895px 172.625px 0px;" id="elo1z2dvpq6w" class="animable"></rect><rect x="308.42" y="102.15" width="132.34" height="140.95" style="fill: rgb(245, 245, 245); transform-origin: 374.59px 172.625px 0px;" id="el3y5cdcifh0z" class="animable"></rect><g id="eljc137ssa2o"><rect x="373.22" y="102.15" width="2.69" height="140.95" style="fill: rgb(235, 235, 235); transform-origin: 374.565px 172.625px 0px; transform: rotate(180deg);" class="animable"></rect></g><polygon points="391.38 102.15 429.1 243.1 432.72 243.1 395 102.15 391.38 102.15" style="fill: rgb(255, 255, 255); transform-origin: 412.05px 172.625px 0px;" id="elj60t7yhb8fg" class="animable"></polygon><g id="elxochldznafl"><rect x="372.07" y="99.98" width="2.3" height="145.83" style="fill: rgb(240, 240, 240); transform-origin: 373.22px 172.895px 0px; transform: rotate(180deg);" class="animable"></rect></g><polygon points="405.07 102.15 440.76 235.54 440.76 162.22 424.69 102.15 405.07 102.15" style="fill: rgb(255, 255, 255); transform-origin: 422.915px 168.845px 0px;" id="elf7ybozx3r5t" class="animable"></polygon><polygon points="308.42 114.94 308.42 128.47 339.1 243.1 342.72 243.1 308.42 114.94" style="fill: rgb(255, 255, 255); transform-origin: 325.57px 179.02px 0px;" id="elwajlsnfiyl" class="animable"></polygon><polygon points="308.42 142.26 308.42 215.58 315.78 243.1 335.4 243.1 308.42 142.26" style="fill: rgb(255, 255, 255); transform-origin: 321.91px 192.68px 0px;" id="el8zcof5u4av6" class="animable"></polygon><path d="M425.89,259.73H317.43a8.83,8.83,0,0,0-8.83,8.83l-12,76.46H422.72l12-76.46A8.83,8.83,0,0,0,425.89,259.73Z" style="fill: rgb(235, 235, 235); transform-origin: 365.66px 302.375px 0px;" id="elzg2yueeosm" class="animable"></path><path d="M296.91,289.3l.14-.4h-42v93h52V300.05A10.61,10.61,0,0,0,296.91,289.3Z" style="fill: rgb(224, 224, 224); transform-origin: 281.051px 335.4px 0px;" id="elvtaaucc10ad" class="animable"></path><path d="M254.61,289.27h0a10.78,10.78,0,0,0-10.78,10.78V381.9h21.55V300.05A10.78,10.78,0,0,0,254.61,289.27Z" style="fill: rgb(240, 240, 240); transform-origin: 254.605px 335.585px 0px;" id="eltrpvgfyh8xd" class="animable"></path><path d="M417.91,289.3l.14-.4h-42v93h52V300.05A10.61,10.61,0,0,0,417.91,289.3Z" style="fill: rgb(224, 224, 224); transform-origin: 402.051px 335.4px 0px;" id="elof9i3igsyu" class="animable"></path><rect x="272.42" y="316.4" width="92.41" height="65.5" style="fill: rgb(224, 224, 224); transform-origin: 318.625px 349.15px 0px;" id="eldwrjiyxkapq" class="animable"></rect><path d="M278.44,309.69h104a0,0,0,0,1,0,0V332.4a0,0,0,0,1,0,0h-104A11.36,11.36,0,0,1,267.08,321v0A11.36,11.36,0,0,1,278.44,309.69Z" style="fill: rgb(245, 245, 245); transform-origin: 324.76px 321.045px 0px;" id="elg736aw5g6fo" class="animable"></path><path d="M375.61,289.27h0a10.78,10.78,0,0,0-10.78,10.78V381.9h21.55V300.05A10.78,10.78,0,0,0,375.61,289.27Z" style="fill: rgb(240, 240, 240); transform-origin: 375.605px 335.585px 0px;" id="elh8zjgn3ghu" class="animable"></path><path d="M405.05,346.15h17.67l12-77.59a8.83,8.83,0,0,0-8.84-8.83h0a8.83,8.83,0,0,0-8.83,8.83Z" style="fill: rgb(224, 224, 224); transform-origin: 419.885px 302.94px 0px;" id="el3n2it767vd" class="animable"></path><path d="M75.82,345.29c0-.4-1.34-39.68-7.73-45.89-6.21-6-13.35-.23-13.65,0l-.64-.76c.08-.07,8.13-6.64,15,0,6.67,6.49,8,44.94,8,46.58Z" style="fill: rgb(224, 224, 224); transform-origin: 65.3px 320.482px 0px;" id="eld66hilewdoh" class="animable"></path><path d="M76.37,353c0-.47-4.36-47.16,12.69-66.73l.75.66c-16.77,19.24-12.49,65.5-12.44,66Z" style="fill: rgb(224, 224, 224); transform-origin: 82.8404px 319.635px 0px;" id="elwalhn1ln30i" class="animable"></path><path d="M75.74,348.07l-1-.07c0-.53,3.34-53.07-9.17-64.58l.68-.73C79.11,294.51,75.89,345.89,75.74,348.07Z" style="fill: rgb(224, 224, 224); transform-origin: 70.8876px 315.38px 0px;" id="eli7bgxsd4tf" class="animable"></path><path d="M77.37,348h-1c0-1.45.41-35.49,10.08-41a6.82,6.82,0,0,1,6.26-.61c5.85,2.41,8.75,12.82,8.87,13.26l-1,.27c0-.11-2.89-10.38-8.28-12.61a5.91,5.91,0,0,0-5.38.55C77.77,313.12,77.37,347.69,77.37,348Z" style="fill: rgb(224, 224, 224); transform-origin: 88.975px 326.949px 0px;" id="elfgvtjio0sk5" class="animable"></path><path d="M73.6,348.06l-1-.05c0-.27,1.45-26.91-5.73-36.29-1.75-2.28-3.64-3.36-5.63-3.22-4.71.33-8.66,7.22-8.7,7.29l-.87-.49c.17-.3,4.25-7.43,9.49-7.8,2.35-.16,4.54,1.05,6.5,3.61C75.08,320.79,73.67,347,73.6,348.06Z" style="fill: rgb(224, 224, 224); transform-origin: 62.7105px 327.773px 0px;" id="el4yg9mxco79g" class="animable"></path><path d="M75.18,351.69c-.2-2.59-4.7-63.41,3.22-74.12l.81.59c-7.71,10.42-3.08,72.82-3,73.45Z" style="fill: rgb(224, 224, 224); transform-origin: 76.4685px 314.63px 0px;" id="elbq261m931xd" class="animable"></path><path d="M94.87,312.55s-4.76,1.75-3.35,5.89S108,329.39,108,329.39s6.29-5.77.51-15.16S95,309.59,94.87,312.55Z" style="fill: rgb(235, 235, 235); transform-origin: 101.106px 319.04px 0px;" id="el4mwd3oap14" class="animable"></path><path d="M74.2,304.67s5.06-.21,5.35,4.15-11,16.44-11,16.44-8-2.91-6.3-13.79S72.94,302,74.2,304.67Z" style="fill: rgb(235, 235, 235); transform-origin: 70.7842px 314.018px 0px;" id="ela3fyyo0jw9" class="animable"></path><path d="M69.91,283.79s3.38-.36,3.11-2.42S59.9,274,52.32,282.58c0,0,4.85,8.34,11.87,8.45S69.91,283.79,69.91,283.79Z" style="fill: rgb(235, 235, 235); transform-origin: 62.6777px 284.44px 0px;" id="elw2c8c8e2ya" class="animable"></path><path d="M76.2,278.8s-3,1.48-3.91-.41,7.25-13.17,18.21-9.92c0,0,.29,9.64-5.61,13.44S76.2,278.8,76.2,278.8Z" style="fill: rgb(235, 235, 235); transform-origin: 81.3615px 275.468px 0px;" id="ela7rg0qb1wm" class="animable"></path><path d="M60.22,310.89s2.33-1.88-.18-2.8-14.85-.66-15,11.56c0,0,14.37,2.39,16.15-2.27S60.22,310.89,60.22,310.89Z" style="fill: rgb(235, 235, 235); transform-origin: 53.4148px 314.014px 0px;" id="el7v193gbltct" class="animable"></path><path d="M89.52,283.49s-2.33-1.89.18-2.8,14.85-.66,15,11.56c0,0-14.37,2.38-16.15-2.27S89.52,283.49,89.52,283.49Z" style="fill: rgb(235, 235, 235); transform-origin: 96.3252px 286.614px 0px;" id="el6fcqt7qbk4f" class="animable"></path><path d="M81.92,293.33s-.2-2.29,1.64-1.39,8.28,7.83,1.61,14.41c0,0-9-6.64-7.35-10.1S81.92,293.33,81.92,293.33Z" style="fill: rgb(235, 235, 235); transform-origin: 82.8725px 299.04px 0px;" id="el3ibye4ssmu" class="animable"></path><path d="M58.14,296.58s1.4-1.82-.64-2.05-11.18,2.22-9,11.34c0,0,11.13-.84,11.61-4.63S58.14,296.58,58.14,296.58Z" style="fill: rgb(235, 235, 235); transform-origin: 54.1694px 300.193px 0px;" id="elmalelc1u2ai" class="animable"></path><polygon points="95.75 381.9 57.56 381.9 53.44 340.08 99.88 340.08 95.75 381.9" style="fill: rgb(240, 240, 240); transform-origin: 76.66px 360.99px 0px;" id="el605hz80m467" class="animable"></polygon><rect x="51.4" y="335.47" width="50.52" height="9.23" style="fill: rgb(230, 230, 230); transform-origin: 76.66px 340.085px 0px;" id="elj79bgkoaydm" class="animable"></rect></g><g id="freepik--Shadow--inject-1" style="transform-origin: 250px 416.24px 0px;" class="animable"><ellipse id="freepik--path--inject-1" cx="250" cy="416.24" rx="193.89" ry="11.32" style="fill: rgb(245, 245, 245); transform-origin: 250px 416.24px 0px;" class="animable"></ellipse></g><g id="freepik--Screen--inject-1" style="transform-origin: 186.41px 215.645px 0px;" class="animable"><path d="M257.46,71.48v288a4.2,4.2,0,0,1-4.27,4.21h-134a3.78,3.78,0,0,1-2.68-1.07,3.88,3.88,0,0,1-1.14-2.79V71.13a3.4,3.4,0,0,1,3.27-3.53h38.06a2.67,2.67,0,0,1,2.45,1.71l1.58,3.88a2.68,2.68,0,0,0,2.45,1.7h46.57a2.65,2.65,0,0,0,2.45-1.67l1.58-3.9a2.68,2.68,0,0,1,2.45-1.72h37.51A3.83,3.83,0,0,1,257.46,71.48Z" style="fill: rgb(255, 185, 33); transform-origin: 186.414px 215.645px 0px;" id="el9lqaxcw2gxd" class="animable"></path><g id="el2fpa73px0cm"><rect x="115.36" y="90.6" width="142.1" height="241.8" style="fill: rgb(255, 255, 255); opacity: 0.6; isolation: isolate; transform-origin: 186.41px 211.5px 0px;" class="animable"></rect></g><g id="eluqywy1968y"><rect x="133.03" y="76.56" width="1.98" height="2.64" style="fill: rgb(255, 255, 255); opacity: 0.6; isolation: isolate; transform-origin: 134.02px 77.88px 0px; transform: rotate(180deg);" class="animable"></rect></g><g id="elsj6sm9zpr6o"><rect x="129.8" y="75.68" width="1.98" height="3.52" style="fill: rgb(255, 255, 255); opacity: 0.6; isolation: isolate; transform-origin: 130.79px 77.44px 0px; transform: rotate(180deg);" class="animable"></rect></g><g id="els8uzt0y3a"><rect x="126.58" y="74.8" width="1.98" height="4.4" style="fill: rgb(255, 255, 255); opacity: 0.6; isolation: isolate; transform-origin: 127.57px 77px 0px; transform: rotate(180deg);" class="animable"></rect></g><g id="elql1t7f9n29n"><rect x="123.35" y="73.92" width="1.98" height="5.28" style="fill: rgb(255, 255, 255); opacity: 0.6; isolation: isolate; transform-origin: 124.34px 76.56px 0px; transform: rotate(180deg);" class="animable"></rect></g><g id="ellpje250zu5l"><rect x="238.15" y="75.6" width="1.17" height="2.64" style="fill: rgb(255, 255, 255); opacity: 0.6; isolation: isolate; transform-origin: 238.735px 76.92px 0px;" class="animable"></rect></g><g id="elnj68s6n39gn"><rect x="240.13" y="74.63" width="9.35" height="4.57" style="fill: rgb(255, 255, 255); opacity: 0.6; isolation: isolate; transform-origin: 244.805px 76.915px 0px; transform: rotate(180deg);" class="animable"></rect></g><g id="elhggdnijhoyo"><g style="opacity: 0.1; isolation: isolate; transform-origin: 186.41px 215.62px 0px;" class="animable"><path d="M179.29,74.89,138.38,228.12h0l-.45,1.72h0l-.74,2.76h0l-.47,1.72-21.36,80V217.52l40-149.92h1.3a2.67,2.67,0,0,1,2.45,1.71l1.58,3.88a2.68,2.68,0,0,0,2.45,1.7Z" style="fill: rgb(255, 255, 255); transform-origin: 147.325px 190.96px 0px;" id="elmdly2892ssd" class="animable"></path><polygon points="257.46 153.14 257.46 249.98 231.95 345.55 231.33 347.87 227.12 363.64 201.27 363.64 205.48 347.88 206.15 345.35 209.53 332.69 210.21 330.16 211.56 325.09 212.24 322.56 213.59 317.49 214.26 314.96 235.53 235.3 235.53 235.29 236.51 231.62 236.51 231.61 257.46 153.14" style="fill: rgb(255, 255, 255); transform-origin: 229.365px 258.39px 0px;" id="els04ungkig1" class="animable"></polygon><path d="M193.3,74.89,152.65,227.16l-.25.91-2.22,8.35-.25.91L116.5,362.57a3.88,3.88,0,0,1-1.14-2.79V345.05l28.76-107.72.25-.91,2.22-8.35.25-.91L187.49,74.89Z" style="fill: rgb(255, 255, 255); transform-origin: 154.33px 218.73px 0px;" id="elrkpmaa3bqep" class="animable"></path></g></g><g id="ele2lkjb35k05"><path d="M248.49,111.14v-1.51l-.78-.07a4.1,4.1,0,0,0-.58-1.39l.5-.6-1.07-1.07-.6.5a3.73,3.73,0,0,0-1.39-.58l-.07-.78H243l-.07.78a3.73,3.73,0,0,0-1.39.58l-.61-.5-1.06,1.07.5.6a3.73,3.73,0,0,0-.58,1.39l-.78.07v1.51l.78.07a3.73,3.73,0,0,0,.58,1.39l-.5.6,1.06,1.07.61-.5a3.73,3.73,0,0,0,1.39.58l.07.78h1.51l.07-.78a3.73,3.73,0,0,0,1.39-.58l.6.5,1.07-1.07-.5-.6a4.1,4.1,0,0,0,.58-1.39Zm-4.75,1.28a2,2,0,1,1,2-2A2,2,0,0,1,243.74,112.42Z" style="fill: rgb(255, 255, 255); opacity: 0.9; transform-origin: 243.75px 110.385px 0px;" class="animable"></path></g><path d="M137.46,110.19l-5.1-4.21a.21.21,0,0,0-.26,0L127,110.19a.2.2,0,0,0,.13.36h1.14a.21.21,0,0,1,.21.2v3.88a.21.21,0,0,0,.2.21h7.09a.21.21,0,0,0,.2-.21v-3.88a.2.2,0,0,1,.21-.2h1.14A.2.2,0,0,0,137.46,110.19Z" style="fill: rgb(255, 255, 255); transform-origin: 132.231px 110.387px 0px;" id="elsfwew9c9a7" class="animable"></path><g id="elrrmv1bbvtls"><g style="opacity: 0.6; transform-origin: 186.435px 344.565px 0px;" class="animable"><path d="M241.09,342.3h7.79a.57.57,0,0,0,.56-.57.56.56,0,0,0-.56-.56h-7.79a.56.56,0,0,0-.56.56A.57.57,0,0,0,241.09,342.3Z" style="fill: rgb(255, 255, 255); transform-origin: 244.985px 341.735px 0px;" id="eldybhwjvl0vb" class="animable"></path><path d="M248.88,344h-7.79a.56.56,0,0,0-.56.56.57.57,0,0,0,.56.57h7.79a.57.57,0,0,0,.56-.57A.56.56,0,0,0,248.88,344Z" style="fill: rgb(255, 255, 255); transform-origin: 244.985px 344.565px 0px;" id="elvgcsl67jf7q" class="animable"></path><path d="M248.88,346.87h-7.79a.56.56,0,0,0,0,1.12h7.79a.56.56,0,0,0,0-1.12Z" style="fill: rgb(255, 255, 255); transform-origin: 244.985px 347.43px 0px;" id="elqgdkb9okkuf" class="animable"></path><path d="M189.92,344h-3.33v-3.33a.57.57,0,0,0-1.13,0V344h-3.33a.56.56,0,0,0-.56.56.57.57,0,0,0,.56.57h3.33v3.33a.57.57,0,0,0,1.13,0v-3.33h3.33a.57.57,0,0,0,.56-.57A.56.56,0,0,0,189.92,344Z" style="fill: rgb(255, 255, 255); transform-origin: 186.025px 344.565px 0px;" id="elw16kseo1jil" class="animable"></path><path d="M130.18,340.9H124a.58.58,0,0,0-.57.57v6.23a.57.57,0,0,0,.57.56h6.23a.56.56,0,0,0,.56-.56v-6.23A.57.57,0,0,0,130.18,340.9Zm-.57,6.23h-5.1V342h5.1Z" style="fill: rgb(255, 255, 255); transform-origin: 127.11px 344.579px 0px;" id="el4qdnwvxu7cm" class="animable"></path></g></g><g id="el033kkiybwr0w"><g style="opacity: 0.6; isolation: isolate; transform-origin: 181.805px 322.854px 0px;" class="animable"><path d="M181.82,325.68a.46.46,0,0,1-.27-.09l-4-2.61a.5.5,0,1,1,.54-.83l3.74,2.43,3.74-2.43a.51.51,0,0,1,.7.14.5.5,0,0,1-.15.69l-4,2.61A.49.49,0,0,1,181.82,325.68Z" style="fill: rgb(255, 185, 33); transform-origin: 181.805px 323.854px 0px;" id="eljkof9n1kl8m" class="animable"></path><path d="M181.82,323.64a.53.53,0,0,1-.27-.08l-4-2.61a.51.51,0,0,1-.15-.7.5.5,0,0,1,.69-.14l3.74,2.43,3.74-2.43a.5.5,0,1,1,.55.84l-4,2.61A.57.57,0,0,1,181.82,323.64Z" style="fill: rgb(255, 185, 33); transform-origin: 181.834px 321.834px 0px;" id="el7qbmycf3b7q" class="animable"></path></g></g><g id="el12ojeunw5sre"><path d="M248.84,153.14a3.73,3.73,0,0,0-3.72,3.72V311.19a3.72,3.72,0,0,0,7.44,0V156.86A3.72,3.72,0,0,0,248.84,153.14Z" style="opacity: 0.1; isolation: isolate; transform-origin: 248.84px 234.025px 0px;" class="animable"></path></g><g id="elw76pn8rc80l"><path d="M248.84,154.18a3,3,0,0,0-3,3V178a3,3,0,0,0,5.94,0V157.15A3,3,0,0,0,248.84,154.18Z" style="fill: rgb(255, 255, 255); opacity: 0.6; isolation: isolate; transform-origin: 248.81px 167.378px 0px;" class="animable"></path></g><path d="M175.35,106.8l-2.57,7.87h-2l-1.73-5.33-1.79,5.33h-2l-2.58-7.87h1.89l1.77,5.53,1.86-5.53H170l1.8,5.57,1.83-5.57Z" style="fill: rgb(255, 255, 255); transform-origin: 169.015px 110.735px 0px;" id="elgs1sjzl5168" class="animable"></path><path d="M176.14,106.8a1,1,0,0,1,1.09-1,1,1,0,0,1,1.09.94,1.1,1.1,0,0,1-2.18,0Zm.21,1.82h1.76v6h-1.76Z" style="fill: rgb(255, 255, 255); transform-origin: 177.23px 110.208px 0px;" id="elczvlenuyvz5" class="animable"></path><path d="M179.15,114.11l.59-1.26a4.12,4.12,0,0,0,2.1.58c.81,0,1.12-.21,1.12-.55,0-1-3.66,0-3.66-2.4,0-1.14,1-2,2.8-2a5,5,0,0,1,2.33.53l-.59,1.25a3.42,3.42,0,0,0-1.74-.45c-.79,0-1.12.24-1.12.56,0,1,3.65,0,3.65,2.42,0,1.12-1,1.92-2.86,1.92A5.24,5.24,0,0,1,179.15,114.11Z" style="fill: rgb(255, 255, 255); transform-origin: 181.89px 111.596px 0px;" id="elvmzlht1ix7j" class="animable"></path><path d="M191.9,111.2v3.47h-1.76v-3.2c0-1-.45-1.42-1.22-1.42s-1.46.51-1.46,1.63v3h-1.75v-8.35h1.75v2.93a2.69,2.69,0,0,1,1.93-.72A2.37,2.37,0,0,1,191.9,111.2Z" style="fill: rgb(255, 255, 255); transform-origin: 188.814px 110.505px 0px;" id="el1h2ns87yjxg" class="animable"></path><path d="M193.48,106.32h1.76v8.35h-1.76Z" style="fill: rgb(255, 255, 255); transform-origin: 194.36px 110.495px 0px;" id="el2t4mf89gtjf" class="animable"></path><path d="M196.65,106.8a1,1,0,0,1,1.09-1,1,1,0,0,1,1.1.94,1,1,0,0,1-1.1,1A1,1,0,0,1,196.65,106.8Zm.22,1.82h1.75v6h-1.75Z" style="fill: rgb(255, 255, 255); transform-origin: 197.745px 110.207px 0px;" id="el4itdx41qo65" class="animable"></path><path d="M199.67,114.11l.58-1.26a4.12,4.12,0,0,0,2.1.58c.81,0,1.12-.21,1.12-.55,0-1-3.66,0-3.66-2.4,0-1.14,1-2,2.8-2a4.92,4.92,0,0,1,2.33.53l-.58,1.25a3.48,3.48,0,0,0-1.75-.45c-.78,0-1.12.24-1.12.56,0,1,3.65,0,3.65,2.42,0,1.12-1,1.92-2.85,1.92A5.18,5.18,0,0,1,199.67,114.11Z" style="fill: rgb(255, 255, 255); transform-origin: 202.405px 111.596px 0px;" id="el203128vy2tj" class="animable"></path><path d="M210.13,114.38a2.58,2.58,0,0,1-1.43.38,2,2,0,0,1-2.26-2.17V110.1h-.94v-1.35h.94v-1.47h1.75v1.47h1.51v1.35h-1.51v2.47a.7.7,0,0,0,.75.79,1.15,1.15,0,0,0,.71-.22Z" style="fill: rgb(255, 255, 255); transform-origin: 207.815px 111.029px 0px;" id="elb61dkg7ym8a" class="animable"></path><g id="elrnzbxb1hbw"><path d="M125.35,124.16H247.48a5.07,5.07,0,0,1,5.08,5.08h0a5.08,5.08,0,0,1-5.08,5.09H125.35a5.09,5.09,0,0,1-5.09-5.09h0A5.08,5.08,0,0,1,125.35,124.16Z" style="opacity: 0.3; isolation: isolate; transform-origin: 186.41px 129.245px 0px;" class="animable"></path></g><path d="M245.55,130.55a2.07,2.07,0,0,1-1.45-.6,2,2,0,0,1-.6-1.45,2,2,0,0,1,.6-1.45,2.05,2.05,0,0,1,2.9,0,2,2,0,0,1,.6,1.45A2,2,0,0,1,247,130,2.07,2.07,0,0,1,245.55,130.55Zm0-3.1a1,1,0,0,0-.74.3,1.06,1.06,0,0,0-.31.75,1,1,0,0,0,.31.74,1.08,1.08,0,0,0,1.48,0,1,1,0,0,0,.31-.74,1.06,1.06,0,0,0-.31-.75A1,1,0,0,0,245.55,127.45Z" style="fill: rgb(255, 255, 255); transform-origin: 245.551px 128.5px 0px;" id="elwsn56jmhhma" class="animable"></path><path d="M248.59,132a.5.5,0,0,1-.35-.15l-2-1.94a.51.51,0,0,1,0-.71.5.5,0,0,1,.71,0l1.95,1.95a.5.5,0,0,1,0,.7A.51.51,0,0,1,248.59,132Z" style="fill: rgb(255, 255, 255); transform-origin: 247.57px 130.526px 0px;" id="elssvl6iz9f9" class="animable"></path><g id="elyrww9qql6v"><rect x="120.26" y="208.14" width="121.12" height="51.64" rx="2.18" style="fill: rgb(255, 185, 33); opacity: 0.6; isolation: isolate; transform-origin: 180.82px 233.96px 0px;" class="animable"></rect></g><rect x="125.58" y="213.17" width="42.33" height="38.9" style="fill: rgb(255, 185, 33); transform-origin: 146.745px 232.62px 0px;" id="elf00sptgl3uu" class="animable"></rect><g id="elwe5o7xy9azh"><rect x="125.58" y="213.17" width="42.33" height="38.9" style="fill: rgb(255, 255, 255); opacity: 0.6; transform-origin: 146.745px 232.62px 0px;" class="animable"></rect></g><g id="el8pfqvajlldn"><rect x="127.74" y="215.22" width="38.12" height="34.69" style="fill: rgb(255, 255, 255); opacity: 0.3; transform-origin: 146.8px 232.565px 0px;" class="animable"></rect></g><g id="elsisjqmgpnj9"><polygon points="165.86 242.57 165.86 249.91 127.75 249.91 127.74 232.95 135.61 226.07 147.28 237.45 153.46 232.95 165.86 242.57" style="fill: rgb(255, 255, 255); opacity: 0.3; transform-origin: 146.8px 237.99px 0px;" class="animable"></polygon></g><g id="elcib9gyalmrv"><g style="opacity: 0.6; transform-origin: 156.44px 226.06px 0px;" class="animable"><path d="M159.51,226.06a3.07,3.07,0,1,1-3.07-3.07A3.06,3.06,0,0,1,159.51,226.06Z" style="fill: rgb(255, 255, 255); transform-origin: 156.44px 226.06px 0px;" id="elsboqhfmfiun" class="animable"></path><g id="elm7atqizku59"><path d="M159.51,226.06a3.07,3.07,0,1,1-3.07-3.07A3.06,3.06,0,0,1,159.51,226.06Z" style="fill: rgb(255, 255, 255); opacity: 0.3; transform-origin: 156.44px 226.06px 0px;" class="animable"></path></g></g></g><g id="el6c2wf8fxonk"><g style="opacity: 0.3; isolation: isolate; transform-origin: 204.415px 222.83px 0px;" class="animable"><path d="M217.06,216.5h-41.5a1.27,1.27,0,0,1-1.27-1.27h0a1.26,1.26,0,0,1,1.27-1.26h41.5a1.25,1.25,0,0,1,1.26,1.26h0A1.26,1.26,0,0,1,217.06,216.5Z" style="fill: rgb(255, 255, 255); transform-origin: 196.305px 215.235px 0px;" id="elxr67ahpx81" class="animable"></path><path d="M233.27,224.09H175.56a1.26,1.26,0,0,1-1.27-1.26h0a1.27,1.27,0,0,1,1.27-1.27h57.71a1.27,1.27,0,0,1,1.27,1.27h0A1.26,1.26,0,0,1,233.27,224.09Z" style="fill: rgb(255, 255, 255); transform-origin: 204.415px 222.825px 0px;" id="elz8ezmwhu63" class="animable"></path><path d="M198.84,231.69H175.56a1.27,1.27,0,0,1-1.27-1.27h0a1.26,1.26,0,0,1,1.27-1.26h23.28a1.25,1.25,0,0,1,1.26,1.26h0A1.26,1.26,0,0,1,198.84,231.69Z" style="fill: rgb(255, 255, 255); transform-origin: 187.195px 230.425px 0px;" id="el896vlvtho" class="animable"></path></g></g><path d="M174.79,244.6c1.12-1.82,3.27-1.12,4.37.29,1.11-1.42,3.25-2.12,4.38-.3,1.89,3.07-2,5.92-3.84,7l-.52.32-.53-.32C176.81,250.52,172.9,247.68,174.79,244.6Z" style="fill: rgb(255, 255, 255); transform-origin: 179.166px 247.703px 0px;" id="elimjgcpljmal" class="animable"></path><g id="elb9h8xbrsdu8"><g style="opacity: 0.6; transform-origin: 195.285px 247.41px 0px;" class="animable"><polygon points="192.17 245.09 198.39 245.09 198.1 251.95 192.47 251.95 192.17 245.09" style="fill: rgb(255, 255, 255); transform-origin: 195.28px 248.52px 0px;" id="elvy38p7i59fc" class="animable"></polygon><polygon points="196.45 243.47 196.16 242.87 194.41 242.87 194.11 243.47 191.61 243.76 191.61 244.44 198.96 244.44 198.96 243.76 196.45 243.47" style="fill: rgb(255, 255, 255); transform-origin: 195.285px 243.655px 0px;" id="el87s7yv42zh8" class="animable"></polygon></g></g><g id="el8j8265d70j9"><g style="opacity: 0.6; transform-origin: 210.552px 247.455px 0px;" class="animable"><path d="M215.36,243.12h-1.6a.37.37,0,0,0-.37.3l-.11.52h-7.72l-.07,0-.06,0s0,0-.05.05l0,.06,0,.06a.22.22,0,0,0,0,.08s0,0,0,0v0s0,0,0,0l.82,4.63a.38.38,0,0,0,.37.31h6.16a.37.37,0,0,0,.37-.3l.93-4.54a.47.47,0,0,0,0-.16v0l.08-.43h1.3a.38.38,0,0,0,0-.75Zm-2.55,3.16h-1.62l.09-1.59h1.85Zm-4,0-.07-1.59h1.8l-.09,1.59Zm1.6.75-.09,1.54h-1.4l-.07-1.54Zm-4.29-2.34H208l.07,1.59h-1.66Zm.41,2.34h1.57l.07,1.54h-1.37Zm5.82,1.54h-1.28l.09-1.54h1.5Z" style="fill: rgb(255, 255, 255); transform-origin: 210.552px 246.04px 0px;" id="el2xfilvv2lo5" class="animable"></path><path d="M206.83,250.08a.94.94,0,1,0,.93.94A.94.94,0,0,0,206.83,250.08Z" style="fill: rgb(255, 255, 255); transform-origin: 206.82px 251.02px 0px;" id="eldolgaq7m0wn" class="animable"></path><path d="M213.06,250.08a.94.94,0,1,0,.93.94A.94.94,0,0,0,213.06,250.08Z" style="fill: rgb(255, 255, 255); transform-origin: 213.05px 251.02px 0px;" id="elt57qwxjhcth" class="animable"></path></g></g><g id="elnrw6jjnag7"><rect x="120.26" y="263.14" width="121.12" height="51.64" rx="2.18" style="fill: rgb(255, 185, 33); opacity: 0.6; isolation: isolate; transform-origin: 180.82px 288.96px 0px;" class="animable"></rect></g><rect x="125.58" y="268.17" width="42.33" height="38.9" style="fill: rgb(255, 185, 33); transform-origin: 146.745px 287.62px 0px;" id="el214plyh2gn6" class="animable"></rect><g id="elmno7g5gvg7"><rect x="125.58" y="268.17" width="42.33" height="38.9" style="fill: rgb(255, 255, 255); opacity: 0.6; transform-origin: 146.745px 287.62px 0px;" class="animable"></rect></g><g id="el0kwzk5ac0h5h"><rect x="127.74" y="270.22" width="38.12" height="34.69" style="fill: rgb(255, 255, 255); opacity: 0.3; transform-origin: 146.8px 287.565px 0px;" class="animable"></rect></g><g id="elm3muv5a73ai"><polygon points="165.86 297.57 165.86 304.91 127.75 304.91 127.74 287.95 135.61 281.07 147.28 292.45 153.46 287.95 165.86 297.57" style="fill: rgb(255, 255, 255); opacity: 0.3; transform-origin: 146.8px 292.99px 0px;" class="animable"></polygon></g><g id="eliqtbod23fgl"><g style="opacity: 0.6; transform-origin: 156.44px 281.06px 0px;" class="animable"><path d="M159.51,281.06a3.07,3.07,0,1,1-3.07-3.07A3.06,3.06,0,0,1,159.51,281.06Z" style="fill: rgb(255, 255, 255); transform-origin: 156.44px 281.06px 0px;" id="ellbd5txz27lk" class="animable"></path><g id="elhdoqzvy0azd"><path d="M159.51,281.06a3.07,3.07,0,1,1-3.07-3.07A3.06,3.06,0,0,1,159.51,281.06Z" style="fill: rgb(255, 255, 255); opacity: 0.3; transform-origin: 156.44px 281.06px 0px;" class="animable"></path></g></g></g><g id="el5uilmb0gzfs"><g style="opacity: 0.3; isolation: isolate; transform-origin: 204.415px 277.83px 0px;" class="animable"><path d="M217.06,271.5h-41.5a1.27,1.27,0,0,1-1.27-1.27h0a1.26,1.26,0,0,1,1.27-1.26h41.5a1.25,1.25,0,0,1,1.26,1.26h0A1.26,1.26,0,0,1,217.06,271.5Z" style="fill: rgb(255, 255, 255); transform-origin: 196.305px 270.235px 0px;" id="elm0pu1ncl4t9" class="animable"></path><path d="M233.27,279.09H175.56a1.26,1.26,0,0,1-1.27-1.26h0a1.27,1.27,0,0,1,1.27-1.27h57.71a1.27,1.27,0,0,1,1.27,1.27h0A1.26,1.26,0,0,1,233.27,279.09Z" style="fill: rgb(255, 255, 255); transform-origin: 204.415px 277.825px 0px;" id="elye1n0chnqk" class="animable"></path><path d="M198.84,286.69H175.56a1.27,1.27,0,0,1-1.27-1.27h0a1.26,1.26,0,0,1,1.27-1.26h23.28a1.25,1.25,0,0,1,1.26,1.26h0A1.26,1.26,0,0,1,198.84,286.69Z" style="fill: rgb(255, 255, 255); transform-origin: 187.195px 285.425px 0px;" id="elovtaw6l0xs" class="animable"></path></g></g><path d="M174.79,299.6c1.12-1.82,3.27-1.12,4.37.29,1.11-1.42,3.25-2.12,4.38-.3,1.89,3.07-2,5.92-3.84,7l-.52.32-.53-.32C176.81,305.52,172.9,302.68,174.79,299.6Z" style="fill: rgb(255, 255, 255); transform-origin: 179.166px 302.703px 0px;" id="elmb3ogeldlps" class="animable"></path><g id="elnq2fzz9l69n"><g style="opacity: 0.6; transform-origin: 195.285px 302.41px 0px;" class="animable"><polygon points="192.17 300.08 198.39 300.08 198.1 306.95 192.47 306.95 192.17 300.08" style="fill: rgb(255, 255, 255); transform-origin: 195.28px 303.515px 0px;" id="el7to0rwaihqe" class="animable"></polygon><polygon points="196.45 298.47 196.16 297.87 194.41 297.87 194.11 298.47 191.61 298.76 191.61 299.44 198.96 299.44 198.96 298.76 196.45 298.47" style="fill: rgb(255, 255, 255); transform-origin: 195.285px 298.655px 0px;" id="elmzog6npo89h" class="animable"></polygon></g></g><g id="elmmmni08vso"><g style="opacity: 0.6; transform-origin: 210.552px 302.455px 0px;" class="animable"><path d="M215.36,298.12h-1.6a.37.37,0,0,0-.37.3l-.11.52h-7.72l-.07,0-.06,0-.05.05,0,.06,0,.06a.22.22,0,0,0,0,.08s0,0,0,0v0s0,0,0,0l.82,4.63a.38.38,0,0,0,.37.31h6.16a.37.37,0,0,0,.37-.3l.93-4.54a.47.47,0,0,0,0-.16v0l.08-.43h1.3a.38.38,0,0,0,0-.75Zm-2.55,3.16h-1.62l.09-1.59h1.85Zm-4,0-.07-1.59h1.8l-.09,1.59Zm1.6.75-.09,1.54h-1.4l-.07-1.54Zm-4.29-2.34H208l.07,1.59h-1.66Zm.41,2.34h1.57l.07,1.54h-1.37Zm5.82,1.54h-1.28l.09-1.54h1.5Z" style="fill: rgb(255, 255, 255); transform-origin: 210.552px 301.04px 0px;" id="elj9mp3zxadls" class="animable"></path><path d="M206.83,305.08a.94.94,0,1,0,.93.94A.94.94,0,0,0,206.83,305.08Z" style="fill: rgb(255, 255, 255); transform-origin: 206.82px 306.02px 0px;" id="elkqn39bna1he" class="animable"></path><path d="M213.06,305.08a.94.94,0,1,0,.93.94A.94.94,0,0,0,213.06,305.08Z" style="fill: rgb(255, 255, 255); transform-origin: 213.05px 306.02px 0px;" id="elzkwh6xfygaa" class="animable"></path></g></g><g id="el3f5yl6liobp"><rect x="120.26" y="153.14" width="121.12" height="51.64" rx="2.18" style="fill: rgb(255, 185, 33); opacity: 0.6; isolation: isolate; transform-origin: 180.82px 178.96px 0px;" class="animable"></rect></g><rect x="125.58" y="158.17" width="42.33" height="38.9" style="fill: rgb(255, 185, 33); transform-origin: 146.745px 177.62px 0px;" id="elt1kriqsdfw" class="animable"></rect><g id="elgzpokwsdnzr"><rect x="125.58" y="158.17" width="42.33" height="38.9" style="fill: rgb(255, 255, 255); opacity: 0.6; transform-origin: 146.745px 177.62px 0px;" class="animable"></rect></g><g id="elt6qouqzi50b"><rect x="127.74" y="160.22" width="38.12" height="34.69" style="fill: rgb(255, 255, 255); opacity: 0.3; transform-origin: 146.8px 177.565px 0px;" class="animable"></rect></g><g id="elptho3lcz5c"><polygon points="165.86 187.57 165.86 194.91 127.75 194.91 127.74 177.95 135.61 171.07 147.28 182.45 153.46 177.95 165.86 187.57" style="fill: rgb(255, 255, 255); opacity: 0.3; transform-origin: 146.8px 182.99px 0px;" class="animable"></polygon></g><g id="el6y5n1k6k1dc"><g style="opacity: 0.6; transform-origin: 156.44px 171.06px 0px;" class="animable"><path d="M159.51,171.06a3.07,3.07,0,1,1-3.07-3.07A3.06,3.06,0,0,1,159.51,171.06Z" style="fill: rgb(255, 255, 255); transform-origin: 156.44px 171.06px 0px;" id="elodd74rp6s9d" class="animable"></path><g id="elw4ejafdmg4j"><path d="M159.51,171.06a3.07,3.07,0,1,1-3.07-3.07A3.06,3.06,0,0,1,159.51,171.06Z" style="fill: rgb(255, 255, 255); opacity: 0.3; transform-origin: 156.44px 171.06px 0px;" class="animable"></path></g></g></g><g id="elno8evstr8cn"><g style="opacity: 0.3; isolation: isolate; transform-origin: 204.415px 167.83px 0px;" class="animable"><path d="M217.06,161.5h-41.5a1.27,1.27,0,0,1-1.27-1.27h0a1.26,1.26,0,0,1,1.27-1.26h41.5a1.25,1.25,0,0,1,1.26,1.26h0A1.26,1.26,0,0,1,217.06,161.5Z" style="fill: rgb(255, 255, 255); transform-origin: 196.305px 160.235px 0px;" id="elzlug2sou2bi" class="animable"></path><path d="M233.27,169.09H175.56a1.26,1.26,0,0,1-1.27-1.26h0a1.27,1.27,0,0,1,1.27-1.27h57.71a1.27,1.27,0,0,1,1.27,1.27h0A1.26,1.26,0,0,1,233.27,169.09Z" style="fill: rgb(255, 255, 255); transform-origin: 204.415px 167.825px 0px;" id="ellbisw3ewm" class="animable"></path><path d="M198.84,176.69H175.56a1.27,1.27,0,0,1-1.27-1.27h0a1.26,1.26,0,0,1,1.27-1.26h23.28a1.25,1.25,0,0,1,1.26,1.26h0A1.26,1.26,0,0,1,198.84,176.69Z" style="fill: rgb(255, 255, 255); transform-origin: 187.195px 175.425px 0px;" id="elk14hb05x1i9" class="animable"></path></g></g><path d="M174.79,189.6c1.12-1.82,3.27-1.12,4.37.29,1.11-1.42,3.25-2.12,4.38-.3,1.89,3.07-2,5.92-3.84,7l-.52.32-.53-.32C176.81,195.52,172.9,192.68,174.79,189.6Z" style="fill: rgb(255, 255, 255); transform-origin: 179.166px 192.703px 0px;" id="el2e7tcvevxff" class="animable"></path><g id="eljl8q1q3f9hl"><g style="opacity: 0.6; transform-origin: 195.285px 192.41px 0px;" class="animable"><polygon points="192.17 190.09 198.39 190.09 198.1 196.95 192.47 196.95 192.17 190.09" style="fill: rgb(255, 255, 255); transform-origin: 195.28px 193.52px 0px;" id="elvzr5g10h58" class="animable"></polygon><polygon points="196.45 188.47 196.16 187.87 194.41 187.87 194.11 188.47 191.61 188.76 191.61 189.44 198.96 189.44 198.96 188.76 196.45 188.47" style="fill: rgb(255, 255, 255); transform-origin: 195.285px 188.655px 0px;" id="el8390psf40xo" class="animable"></polygon></g></g><g id="elswt10qna7os"><g style="opacity: 0.6; transform-origin: 210.552px 192.455px 0px;" class="animable"><path d="M215.36,188.12h-1.6a.37.37,0,0,0-.37.3l-.11.52h-7.72l-.07,0-.06,0s0,0-.05.05l0,.06,0,.06a.22.22,0,0,0,0,.08s0,0,0,0v0s0,0,0,0l.82,4.63a.38.38,0,0,0,.37.31h6.16a.37.37,0,0,0,.37-.3l.93-4.54a.47.47,0,0,0,0-.16v0l.08-.43h1.3a.38.38,0,0,0,0-.75Zm-2.55,3.16h-1.62l.09-1.59h1.85Zm-4,0-.07-1.59h1.8l-.09,1.59Zm1.6.75-.09,1.54h-1.4l-.07-1.54Zm-4.29-2.34H208l.07,1.59h-1.66Zm.41,2.34h1.57l.07,1.54h-1.37Zm5.82,1.54h-1.28l.09-1.54h1.5Z" style="fill: rgb(255, 255, 255); transform-origin: 210.552px 191.04px 0px;" id="elir90iffk6tj" class="animable"></path><path d="M206.83,195.08a.94.94,0,1,0,.93.94A.94.94,0,0,0,206.83,195.08Z" style="fill: rgb(255, 255, 255); transform-origin: 206.82px 196.02px 0px;" id="ely5dawvp1yb" class="animable"></path><path d="M213.06,195.08a.94.94,0,1,0,.93.94A.94.94,0,0,0,213.06,195.08Z" style="fill: rgb(255, 255, 255); transform-origin: 213.05px 196.02px 0px;" id="elype4ibbo5jb" class="animable"></path></g></g></g><g id="freepik--Character--inject-1" style="transform-origin: 285.038px 284.264px 0px;" class="animable"><path d="M332.16,236.12l-8.3,7.46s3.21,2.53,4.08,3.42-3.79,3.82-5.17,3-3.46-4.48-4.25-6,3-3.95,3-3.95l6.71-6.53Z" style="fill: rgb(185, 121, 100); transform-origin: 325.286px 241.832px 0px;" id="eleh1s1jkr6ob" class="animable"></path><path d="M345.91,220c-.29,6-15.54,18.65-15.54,18.65l-4.8-3.15s12.21-12.91,10.62-16.81c-.56-1.37-2.5-3.1-4.77-4.75a90.72,90.72,0,0,0-9.51-5.84l3.51-8.63,2.77-6.8C333.35,194.78,346.21,214.06,345.91,220Z" style="fill: rgb(255, 185, 33); transform-origin: 333.913px 215.66px 0px;" id="eldjat50csi3" class="animable"></path><g id="elwx9vto5yww"><path d="M331.42,214a90.72,90.72,0,0,0-9.51-5.84l3.51-8.63C328.28,202.48,332.69,208.18,331.42,214Z" style="opacity: 0.2; isolation: isolate; transform-origin: 326.777px 206.765px 0px;" class="animable"></path></g><path d="M248.86,197.44l-17.22-7s-1.34-2.23-2.49-2.52-8.25.15-8.79,1,.57,6.23,2,6.68,7.53-.8,8.06-1.14l15.39,7.87Z" style="fill: rgb(185, 121, 100); transform-origin: 234.54px 195.08px 0px;" id="elkzckscaqbp" class="animable"></path><polygon points="347.15 410.59 340.87 411.7 338.3 403.14 335.95 395.29 343.19 392.76 345.29 402.2 347.15 410.59" style="fill: rgb(185, 121, 100); transform-origin: 341.55px 402.23px 0px;" id="eljyoinfp90io" class="animable"></polygon><g id="elu3ztoow1v3"><polygon points="345.32 402.39 338.33 403.31 335.96 395.37 343.19 392.8 345.32 402.39" style="opacity: 0.2; isolation: isolate; transform-origin: 340.64px 398.055px 0px;" class="animable"></polygon></g><polygon points="305.24 410.75 298.87 410.75 297.82 402.2 296.87 394.21 304.44 393.06 304.87 402.44 305.24 410.75" style="fill: rgb(185, 121, 100); transform-origin: 301.055px 401.905px 0px;" id="eltpd1b7v3mzn" class="animable"></polygon><g id="elrbe2jvkljxc"><polygon points="304.87 403.01 297.82 402.7 296.87 394.46 304.44 393.19 304.87 403.01" style="opacity: 0.2; isolation: isolate; transform-origin: 300.87px 398.1px 0px;" class="animable"></polygon></g><path d="M345.91,395.53l-10.32,1.82c-10.41-26-17.82-47.61-23-65.58-2.82-9.7-5.05-18.32-6.74-26l.44,28.24v63.71H295.83c-25.49-121-7.42-149.13-7.42-149.13l30.49-5.1a139.21,139.21,0,0,1,2.56,17.13l1.37,10.11,11.92,61.57Z" style="fill: rgb(255, 185, 33); transform-origin: 314.053px 320.605px 0px;" id="elwxfzvgu0jo" class="animable"></path><g id="elnbldt564yth"><g style="opacity: 0.5; isolation: isolate; transform-origin: 314.052px 320.685px 0px;" class="animable"><path d="M345.91,395.53l-10.32,1.82c-9.51-23.71-16.52-43.83-21.64-60.83-.49-1.61-1-3.19-1.45-4.75-2.56-8.8-4.26-16.72-6.26-23.82v0a9.93,9.93,0,0,0-.48-2.13l.48,28.24v63.71H295.83c-15.57-74-14.89-113.29-12-132.61,1.84-12.32,4.58-16.41,4.58-16.41l30.49-5.15a138.42,138.42,0,0,1,2.56,17.1l.41,3,1,7.06,11.92,61.56Z" style="fill: rgb(255, 255, 255); transform-origin: 314.052px 320.685px 0px;" id="el3ujqirddwfz" class="animable"></path></g></g><polygon points="333.98 396.07 346.78 391.83 346.6 397.27 336.02 400.65 333.98 396.07" style="fill: rgb(255, 185, 33); transform-origin: 340.38px 396.24px 0px;" id="elpnldm64lwnr" class="animable"></polygon><g id="ellx1qmgjuch"><polygon points="333.98 396.07 346.78 391.83 346.6 397.27 336.02 400.65 333.98 396.07" style="fill: rgb(255, 255, 255); opacity: 0.6; isolation: isolate; transform-origin: 340.38px 396.24px 0px;" class="animable"></polygon></g><polygon points="294.46 396.66 307.81 394.71 306.69 400.04 295.68 401.53 294.46 396.66" style="fill: rgb(255, 185, 33); transform-origin: 301.135px 398.12px 0px;" id="elbc7pcg958kt" class="animable"></polygon><g id="elya48df6c0r"><polygon points="294.46 396.66 307.81 394.71 306.69 400.04 295.68 401.53 294.46 396.66" style="fill: rgb(255, 255, 255); opacity: 0.6; isolation: isolate; transform-origin: 301.135px 398.12px 0px;" class="animable"></polygon></g><g id="eldungz5t0t2n"><path d="M314,336.52c-.49-1.61-1-3.19-1.45-4.75-2.55-8.8-4.26-16.72-6.26-23.82v0l-1-13.08s6.52-14.37,4.08-24.49c.22.58,4.54,11.6,2.85,22.6A320.41,320.41,0,0,0,314,336.52Z" style="opacity: 0.2; isolation: isolate; transform-origin: 309.645px 303.45px 0px;" class="animable"></path></g><path d="M312.78,182.47a1.45,1.45,0,0,1-.22.21,11.16,11.16,0,0,1-3.66,2.41c-4,1.49-6.91,1.28-9-.35h0c-2.94-2.47-4.22-7.36-4.63-13.4a22.74,22.74,0,0,1,.42-7.17.34.34,0,0,1,0-.1c0-.08,0-.19.07-.27a8.23,8.23,0,0,1,5.37-5.76,16.65,16.65,0,0,1,3.49-.86C316.29,155.56,320.88,174.65,312.78,182.47Z" style="fill: rgb(185, 121, 100); transform-origin: 306.009px 171.589px 0px;" id="elkrrjfouy28l" class="animable"></path><g id="elsjezpzdvmt"><path d="M312.56,182.68a11,11,0,0,1-3.69,2.25c-4,1.48-6.92,1.14-9-.52a11.7,11.7,0,0,0,7.33-1.56A6.15,6.15,0,0,1,312.56,182.68Z" style="opacity: 0.2; isolation: isolate; transform-origin: 306.215px 184.008px 0px;" class="animable"></path></g><path d="M315.83,191.71c1.85,2.89-1.75,5.68-1.75,5.68-7.72-.37-10.27-3.46-10.27-3.46,4.49-5-.16-12.56-.16-12.56l1.34.13,8.51-1.38s-.63,5-.57,6.11v0C313.3,191.85,315.83,191.71,315.83,191.71Z" style="fill: rgb(185, 121, 100); transform-origin: 310.004px 188.755px 0px;" id="el8uhyvq3hic9" class="animable"></path><path d="M295.67,164.1s.41,8.27,8.62,10.8c0,0,4.43,8.08,9.35,7.57,6.72-.69,11.39-11,7.83-20.37C316.86,149.91,297.67,151.33,295.67,164.1Z" style="fill: rgb(38, 50, 56); transform-origin: 309.183px 168.095px 0px;" id="eld527fxguabj" class="animable"></path><path d="M300.06,173.05c-.16-1.28.59-3.56,2.62-3.52s3.88,5-1,6.74C301,176.53,300.4,175.72,300.06,173.05Z" style="fill: rgb(185, 121, 100); transform-origin: 302.41px 172.923px 0px;" id="elqk8nxz0w0d" class="animable"></path><path d="M298.19,409.54h7.12a.66.66,0,0,1,.63.51l1.46,6.6a1.09,1.09,0,0,1-.85,1.29.93.93,0,0,1-.24,0c-2.91-.05-3.14-.23-6.8-.23-2.25,0-9.05.24-12.16.24s-3.51-3.07-2.24-3.36c5.71-1.24,10-3,11.84-4.61A1.78,1.78,0,0,1,298.19,409.54Z" style="fill: rgb(38, 50, 56); transform-origin: 295.929px 413.744px 0px;" id="el3410sihx41s" class="animable"></path><path d="M295.74,410.84a2.24,2.24,0,0,1-1.42-.37,1,1,0,0,1-.37-1,.54.54,0,0,1,.3-.49c.82-.42,3.22,1.05,3.48,1.22a.15.15,0,0,1,.08.17.17.17,0,0,1-.13.15A9,9,0,0,1,295.74,410.84Zm-1.1-1.53a.45.45,0,0,0-.23,0s-.1.07-.11.21a.74.74,0,0,0,.23.63,3.6,3.6,0,0,0,2.64.14A7.06,7.06,0,0,0,294.64,409.31Z" style="fill: rgb(255, 185, 33); transform-origin: 295.871px 409.876px 0px;" id="el8d3ubcn0vt9" class="animable"></path><path d="M297.64,410.58h-.09c-.76-.41-2.24-2.05-2.09-2.83a.57.57,0,0,1,.56-.46,1,1,0,0,1,.75.23c.86.69,1,2.82,1,2.93a.18.18,0,0,1-.08.16A.14.14,0,0,1,297.64,410.58Zm-1.49-3h-.09c-.22,0-.24.14-.25.18-.1.48.85,1.72,1.61,2.29a4.2,4.2,0,0,0-.88-2.32A.63.63,0,0,0,296.15,407.57Z" style="fill: rgb(255, 185, 33); transform-origin: 296.61px 408.947px 0px;" id="elylez2jxdjfg" class="animable"></path><path d="M340.63,409.54h7.11a.64.64,0,0,1,.63.51l1.46,6.6a1.08,1.08,0,0,1-.84,1.29l-.24,0c-2.91-.05-3.15-.23-6.8-.23-2.26,0-9.05.24-12.16.24s-3.52-3.07-2.24-3.36c5.71-1.24,10-3,11.83-4.61A1.8,1.8,0,0,1,340.63,409.54Z" style="fill: rgb(38, 50, 56); transform-origin: 338.363px 413.744px 0px;" id="elu3s7zg1lqgs" class="animable"></path><path d="M338.18,410.84a2.25,2.25,0,0,1-1.43-.37,1.06,1.06,0,0,1-.36-1,.53.53,0,0,1,.3-.49c.82-.42,3.21,1.05,3.48,1.22a.16.16,0,0,1,.08.17.18.18,0,0,1-.13.15A9.16,9.16,0,0,1,338.18,410.84Zm-1.11-1.53a.43.43,0,0,0-.22,0c-.05,0-.11.07-.11.21a.71.71,0,0,0,.23.63,3.6,3.6,0,0,0,2.64.14A7,7,0,0,0,337.07,409.31Z" style="fill: rgb(255, 185, 33); transform-origin: 338.313px 409.876px 0px;" id="el08ayqc3vhjm" class="animable"></path><path d="M340.07,410.58H340c-.77-.41-2.25-2.05-2.1-2.83a.59.59,0,0,1,.57-.46,1,1,0,0,1,.74.23c.86.69,1,2.82,1.05,2.93a.21.21,0,0,1-.08.16A.17.17,0,0,1,340.07,410.58Zm-1.49-3h-.08c-.23,0-.25.14-.26.18-.09.48.85,1.72,1.61,2.29a4.11,4.11,0,0,0-.87-2.32A.64.64,0,0,0,338.58,407.57Z" style="fill: rgb(255, 185, 33); transform-origin: 339.075px 408.948px 0px;" id="el3vegcsjrbsq" class="animable"></path><path d="M288.41,248.73s-4-38.92,6-54.81c0,0,14-4.86,33.78-1.21,0,0-7.39,27.33-8.25,56Z" style="fill: rgb(38, 50, 56); transform-origin: 307.905px 220.041px 0px;" id="el4910mk4i67b" class="animable"></path><path d="M325.51,241.58l-33,.87a60.44,60.44,0,0,1-4.13-17.58,92.2,92.2,0,0,1-.17-13.52,93.67,93.67,0,0,1,2-15c8.43-9.29,37.92-3.67,37.92-3.67C323.7,213.79,325.51,241.58,325.51,241.58Z" style="fill: rgb(255, 185, 33); transform-origin: 308.085px 216.723px 0px;" id="el2k6vtlvfz2j" class="animable"></path><path d="M297,158.25c-.21-.55-3.21,2.26-3.35,2.47a5.94,5.94,0,0,0-.39,6.28c1.17,2,3.6,3.39,3.81,5.7.09,1.06-.33,2.1-.33,3.17a5.52,5.52,0,0,0,1.69,3.72c1.95,2,5.15,2.85,5.35,6.09a40.49,40.49,0,0,1-.31,4.25,4.53,4.53,0,0,0,1.43,3.85,11,11,0,0,0,2.83,1.08c.95.35,1.91,1.13,1.87,2.14a8.52,8.52,0,0,1-.66,1.85,3.07,3.07,0,0,0,1.29,3.11c1.93,1.48,5.08,1.32,6.63,3.37a2.69,2.69,0,0,1-.5,4.09s3.72.26,4.38-3.3a3.57,3.57,0,0,1-2.25,4.48s3.54.53,4.21-3.95a3,3,0,0,0,3.44,1.58s-2.74-.94-.64-3.9c1.2-1.69,2.78-3.42,3-5.57.28-2.4-1.7-4.23-1.36-6.64.31-2.26,2.46-3.89,3-6.11a5.78,5.78,0,0,0-.73-4.15c-1.15-2-3.44-3-3.44-5.54,0-2,.81-3.94,1.24-5.91a6,6,0,0,0-.32-4.13,10,10,0,0,0-2.36-2.47c-2.69-2.41-1.3-6.19-3.72-8.84a5.46,5.46,0,0,0-4.49-1.8,23.43,23.43,0,0,0-2.85.75c-2,.49-3.2-.51-4.73-1.55-2.48-1.68-6.06-2.47-8.85-1.07A5.75,5.75,0,0,0,297,158.25Z" style="fill: rgb(38, 50, 56); transform-origin: 311.399px 180.599px 0px;" id="el7t3356c9gus" class="animable"></path><path d="M301.8,182.73a5.54,5.54,0,0,1-4.14-1.5c-1.3-1.35-1.46-3.22-1.45-5v-.48c0-1.85,0-3.44-1-5-.32-.49-.7-1-1.06-1.42a11.14,11.14,0,0,1-1.8-2.81,4.87,4.87,0,0,1,.12-3.89c1.4-3,5.26-4.47,6.41-4.85a.23.23,0,1,1,.16.44c-2.29.77-5.1,2.39-6.14,4.61a4.35,4.35,0,0,0-.11,3.52,10.4,10.4,0,0,0,1.73,2.68c.37.47.75.95,1.08,1.46,1.1,1.67,1.08,3.41,1.06,5.25v.48c0,1.72.14,3.49,1.32,4.71,1.65,1.7,4.29,1.47,6.41,1.08a.24.24,0,0,1,.09.47A15.73,15.73,0,0,1,301.8,182.73Z" style="fill: rgb(38, 50, 56); transform-origin: 298.329px 170.253px 0px;" id="elhxz5xn3opth" class="animable"></path><path d="M325.68,206.16a.24.24,0,0,1-.19-.1c-.86-1.24,1-3.35,2.3-4.75a11.9,11.9,0,0,0,.78-.9,4.1,4.1,0,0,0,.27-4.94l-.35-.49c-.8-1.12-1.71-2.4-1-3.94a7.36,7.36,0,0,1,1.17-1.67,6.71,6.71,0,0,0,1.06-1.46,3.89,3.89,0,0,0-1.63-5.21.23.23,0,0,1-.09-.32.26.26,0,0,1,.33-.09,4.4,4.4,0,0,1,1.81,5.83,7.64,7.64,0,0,1-1.12,1.56,6.75,6.75,0,0,0-1.1,1.55c-.58,1.3.18,2.36,1,3.48l.35.5a4.54,4.54,0,0,1-.28,5.47,10.78,10.78,0,0,1-.81.95c-1.09,1.2-2.91,3.23-2.27,4.16a.24.24,0,0,1-.05.33A.25.25,0,0,1,325.68,206.16Z" style="fill: rgb(38, 50, 56); transform-origin: 327.94px 194.214px 0px;" id="elwglvnngcbgd" class="animable"></path><g id="el43vlxlfrk23"><path d="M288.41,224.87a92.2,92.2,0,0,1-.17-13.52c3.67-3.06,6.52-5.24,6.52-5.24S295.83,217.6,288.41,224.87Z" style="opacity: 0.2; isolation: isolate; transform-origin: 291.442px 215.49px 0px;" class="animable"></path></g><path d="M296.27,193s2.66,13.41-8.12,20.14c0,0-25.79-.07-30.69-1.67s-19.84-11.43-19.84-11.43l3.77-6.55s14.42,5.11,18.77,6.55S296.27,193,296.27,193Z" style="fill: rgb(255, 185, 33); transform-origin: 267.09px 203.07px 0px;" id="elllupzhddmxd" class="animable"></path></g><g id="freepik--speech-bubble--inject-1" style="transform-origin: 345.32px 123.754px 0px;" class="animable"><g id="eldh68e7cju5h"><rect x="326.21" y="98.13" width="38.22" height="38.22" rx="3.69" style="fill: rgb(255, 185, 33); transform-origin: 345.32px 117.24px 0px; transform: rotate(179.92deg);" class="animable"></rect></g><path d="M349.45,134.4s-5,11.46-16.26,15c0,0,6.21-3.57,5.75-15.52Z" style="fill: rgb(255, 185, 33); transform-origin: 341.32px 141.64px 0px;" id="elnbcb6dmi3g" class="animable"></path><g id="elah5epncfnmh"><g style="opacity: 0.7; transform-origin: 344.445px 116.43px 0px;" class="animable"><path d="M348.79,111.56c0-1.89-1.56-3.19-4.22-3.19a6.3,6.3,0,0,0-5.29,2.33l-2.16-1.53c1.63-2.1,4.2-3.31,7.65-3.31,4.26,0,7,2,7,5.26,0,4.93-5.23,5.26-5.23,9.13h-3C343.59,115.61,348.79,115,348.79,111.56Zm-5.61,13.51A1.91,1.91,0,1,1,345.1,127,1.88,1.88,0,0,1,343.18,125.07Z" style="fill: rgb(255, 255, 255); transform-origin: 344.445px 116.43px 0px;" id="el35ewrciej72" class="animable"></path></g></g></g><defs>     <filter id="active" height="200%">         <feMorphology in="SourceAlpha" result="DILATED" operator="dilate" radius="2"></feMorphology>                <feFlood flood-color="#32DFEC" flood-opacity="1" result="PINK"></feFlood>        <feComposite in="PINK" in2="DILATED" operator="in" result="OUTLINE"></feComposite>        <feMerge>            <feMergeNode in="OUTLINE"></feMergeNode>            <feMergeNode in="SourceGraphic"></feMergeNode>        </feMerge>    </filter>    <filter id="hover" height="200%">        <feMorphology in="SourceAlpha" result="DILATED" operator="dilate" radius="2"></feMorphology>                <feFlood flood-color="#ff0000" flood-opacity="0.5" result="PINK"></feFlood>        <feComposite in="PINK" in2="DILATED" operator="in" result="OUTLINE"></feComposite>        <feMerge>            <feMergeNode in="OUTLINE"></feMergeNode>            <feMergeNode in="SourceGraphic"></feMergeNode>        </feMerge>            <feColorMatrix type="matrix" values="0   0   0   0   0                0   1   0   0   0                0   0   0   0   0                0   0   0   1   0 "></feColorMatrix>    </filter></defs></svg>