<svg version="1.2" xmlns="http://www.w3.org/2000/svg" viewBox="0 0 184 137" width="184" height="137"><style>.a{fill:#fff}</style><path fill-rule="evenodd" class="a" d="m181.9 71.6c1.3 3 1.9 6.2 1.9 9.5v41.7c0 1.3-1.1 2.4-2.4 2.4h-6.6v8.3c0 1.4-1.1 2.4-2.4 2.4l-16.2 0.1c-1.3 0-2.4-1.1-2.4-2.4v-8.4h-123.5v8.7c0 0.6-0.2 1.2-0.7 1.6-0.4 0.5-1 0.7-1.6 0.7l-16.3 0.1c-0.6 0-1.2-0.3-1.7-0.7-0.4-0.5-0.7-1.1-0.7-1.7v-8.7h-6.6c-1.4 0-2.4-1.1-2.4-2.4v-41.7c0-3.3 0.6-6.5 1.9-9.5 1.2-2.9 3-5.5 5.2-7.7 2.2-2.3 4.8-4 7.7-5.2q2.8-1.2 5.7-1.6l0.2-0.1v-38.2c0-4.9 2-9.6 5.5-13.1 3.4-3.5 8.1-5.4 13-5.4h105.1c4.9 0 9.5 1.9 13 5.4 3.5 3.5 5.4 8.2 5.4 13.1v38.2l0.3 0.1q2.9 0.4 5.7 1.6c2.9 1.2 5.5 2.9 7.7 5.2 2.2 2.2 4 4.8 5.2 7.7zm-156.1-14.8h13.5v-21.9c0-6.1 5-11.1 11.2-11.1h23.4c6.1 0 11.1 5 11.1 11.1v21.9h14.1v-21.9c0-6.1 5-11.1 11.1-11.1h23.4c6.2 0 11.1 5 11.1 11.1v21.9h13.6v-38c0-7.6-6.2-13.7-13.7-13.7h-105.1c-7.6 0-13.7 6.1-13.7 13.7zm107.8-28.2h-23.4c-3.5 0-6.4 2.8-6.4 6.4v21.8h36.2v-21.8c0-3.6-2.9-6.4-6.4-6.4zm-59.7 0h-23.4c-3.6 0-6.4 2.8-6.4 6.4v21.8h36.1v-21.8c0-3.6-2.8-6.4-6.3-6.4zm-48.3 102.9v-6.2h-11.6l0.1 6.2zm144.4-0.3v-6h-11.5v6.1zm9-34.2h-174v23.4h150.3 0.1q0.3-0.1 0.7-0.2h16.3q0.4 0 0.8 0.2h5.8zm0-16c0-5.2-2-10.1-5.7-13.8-3.7-3.7-8.6-5.7-13.8-5.7h-134.9c-5.3 0-10.2 2-13.9 5.7-3.7 3.7-5.7 8.6-5.7 13.8v11.2h174z"/></svg>