<svg version="1.2" xmlns="http://www.w3.org/2000/svg" viewBox="0 0 116 137" width="116" height="137"><style>.a{fill:#fff}</style><path fill-rule="evenodd" class="a" d="m24.3 66c-1.7-2.8-2.5-6.1-2.3-9.6 0.4-9.8 1.1-18 2.2-25 1.3-8.4 3.2-15.3 5.7-21.1 0.9-2.1 2.2-3.9 3.9-5.4 1.7-1.5 3.7-2.6 5.9-3.1 4.6-1.3 10.6-1.9 18.4-1.8 7.8-0.1 13.8 0.5 18.4 1.8 2.2 0.5 4.2 1.6 5.9 3.1 1.7 1.5 3 3.3 3.9 5.4 2.5 5.8 4.4 12.7 5.7 21.1 1.1 7 1.8 15.2 2.2 25 0.2 3.5-0.6 6.8-2.3 9.6q-0.3 0.4-0.6 0.8c-2.5 3.6-6.8 5.7-11.4 5.7h-43.6c-4.6 0-8.9-2.1-11.4-5.7q-0.3-0.4-0.6-0.8zm3.1-1.9q0.2 0.3 0.4 0.7c1.9 2.6 5.1 4.1 8.5 4.1h43.6c3.5 0 6.6-1.5 8.5-4.1q0.2-0.4 0.4-0.7c1.3-2.1 2-4.7 1.9-7.5-0.4-9.7-1.1-17.7-2.2-24.7-1.3-8.1-3.1-14.7-5.5-20.2-0.7-1.6-1.7-3-3-4.1-1.2-1.1-2.8-2-4.4-2.4-4.3-1.2-10-1.7-17.5-1.6q-0.7 0-1.3 0c-6.8 0-12.1 0.5-16.2 1.6-1.6 0.4-3.2 1.3-4.4 2.4-1.3 1.1-2.3 2.5-3 4.1-2.4 5.5-4.2 12.1-5.5 20.2-1.1 7-1.8 15-2.2 24.7-0.1 2.8 0.6 5.4 1.9 7.5z"/><path fill-rule="evenodd" class="a" d="m103.8 130.5c0 3.4-2.7 6.1-6.1 6.1-3.3 0-6.1-2.7-6.1-6.1 0-2.5 1.5-4.6 3.7-5.6q-0.5-0.4-1.2-0.8c-1.9-1.1-4.7-2.2-8.1-3.1-7-1.8-16.2-2.8-26.1-2.9v6.6c2.5 0.7 4.3 3.1 4.3 5.8 0 3.4-2.7 6.1-6.1 6.1-3.4 0-6.1-2.7-6.1-6.1 0-2.7 1.8-5.1 4.3-5.8v-6.6c-9.9 0.1-19.1 1.1-26.1 2.9-3.4 0.9-6.2 2-8.1 3.1q-0.7 0.4-1.1 0.8c2.1 1 3.6 3.1 3.6 5.6 0 3.4-2.8 6.1-6.1 6.1-3.4 0-6.1-2.7-6.1-6.1 0-2.7 1.8-5.1 4.3-5.8q0.9-2 3.6-3.6c2.1-1.4 5.2-2.5 9-3.5 7.3-1.9 16.8-3 27-3.1v-10.5c-9.9 0-19.8-0.6-29.7-1.8q-0.1 0-0.2 0c-3.1-0.4-5.8-2-7.7-4.4q-1.4-1.9-2-4.1-0.7-2.3-0.3-4.7 0.4-3.4 2.1-6.3 1.6-2.9 4.2-5c3.5-2.9 7.9-4.2 12.4-3.8q1.4 0.1 2.8 0.4c0.9 0.2 1.7 0.3 2.5 0.4 5.7 0.5 11.7 0.8 17.7 0.8 6 0 12-0.3 17.7-0.8 0.8-0.1 1.6-0.2 2.5-0.4q1.5-0.3 2.8-0.4c4.5-0.4 8.9 0.9 12.4 3.8q2.6 2.1 4.2 5 1.7 2.9 2.1 6.3 0.4 2.4-0.3 4.7-0.6 2.2-2 4.1c-1.9 2.4-4.6 4-7.7 4.4q-0.1 0-0.2 0c-9.9 1.2-19.8 1.8-29.7 1.8v10.5c10.2 0.1 19.7 1.2 27 3.1 3.8 1 6.9 2.1 9 3.5q2.7 1.6 3.6 3.6c2.5 0.7 4.3 3.1 4.3 5.8zm-82.8 0c0-1.4-1.1-2.5-2.5-2.5-1.4 0-2.6 1.1-2.6 2.5 0 1.4 1.2 2.5 2.6 2.5 1.4 0 2.5-1.1 2.5-2.5zm6-31.8c9.9 1.1 19.8 1.7 29.7 1.8v-0.1l1.3 0.1 1.5-0.1v0.1c9.9-0.1 19.8-0.7 29.7-1.8q0.1 0 0.1 0c2.2-0.3 4.1-1.4 5.4-3.1 1.3-1.8 1.9-3.9 1.6-6.1-0.5-3.6-2.3-6.8-5-9.1-2.8-2.2-6.3-3.3-9.9-2.9q-1.1 0.1-2.4 0.3c-1 0.2-1.9 0.4-2.8 0.4-5.9 0.6-12 0.8-18.1 0.9-6.1-0.1-12.2-0.3-18.1-0.9-0.9 0-1.8-0.2-2.8-0.4q-1.3-0.2-2.4-0.3c-3.6-0.4-7.1 0.7-9.8 2.9-2.8 2.3-4.6 5.5-5.1 9.1-0.3 2.2 0.3 4.3 1.6 6.1 1.3 1.7 3.2 2.8 5.4 3.1q0 0 0.1 0zm31.1 29.3c-1.4 0-2.5 1.1-2.5 2.5 0 1.4 1.1 2.5 2.5 2.5 1.4 0 2.5-1.1 2.5-2.5 0-1.4-1.1-2.5-2.5-2.5zm42.2 2.5c0-1.4-1.2-2.5-2.6-2.5-1.4 0-2.5 1.1-2.5 2.5 0 1.4 1.1 2.5 2.5 2.5 1.4 0 2.6-1.1 2.6-2.5z"/><path class="a" d="m13.5 84.2h-3.3c-0.4 0-0.6-0.3-0.6-0.6v-21.5h3c1.1 0 2-0.8 2-1.9v-1.2c0-1.1-0.9-2-2-2h-9.9c-1 0-1.9 0.9-1.9 2v1.2c0 1.1 0.9 1.9 1.9 1.9h3.1v24.9c0 0.5 0.4 1 1 1h0.8 2 3.9z"/><path class="a" d="m113.5 57h-9.9c-1.1 0-2 0.9-2 2v1.2c0 1.1 0.9 1.9 2 1.9h3v21.5c0 0.3-0.2 0.6-0.6 0.6h-3.3v3.8h3.9 2 0.8c0.6 0 1-0.5 1-1v-24.9h3.1c1 0 1.9-0.8 1.9-1.9v-1.2c0-1.1-0.9-2-1.9-2z"/></svg>