<svg version="1.2" xmlns="http://www.w3.org/2000/svg" viewBox="0 0 117 138" width="117" height="138"><style>.a{fill:#fff}</style><path fill-rule="evenodd" class="a" d="m116 67.9c-0.3 0.5-0.7 0.8-1.3 0.9-9.5 1.5-19.1 2.5-28.6 3.3q-6.9 0.5-13.9 0.8-1.7 3.1-2.6 6.4c-0.6 2.4-0.9 5-0.9 7.5 0.1 5.1 1.5 10.6 4.1 16.2 1.5 3.1 2.6 6.2 3.4 9.3 2.6 10.7 0.6 19-6 24.5q0 0 0 0c-0.3 0.3-0.7 0.4-1.2 0.4h-21.4q-0.6 0-1.1-0.4 0 0-0.1 0c-6.6-5.5-8.6-13.8-5.9-24.5 0.7-3.1 1.8-6.2 3.3-9.3 2.7-5.6 4.1-11.1 4.1-16.2 0.1-2.5-0.2-5.1-0.9-7.5q-0.9-3.3-2.5-6.4-7.4-0.3-14.8-0.8c-9.2-0.8-18.6-1.8-27.8-3.3-0.5-0.1-1-0.4-1.3-0.9-0.3-0.5-0.3-1.1-0.1-1.6l25.8-64.5c0.3-0.7 1-1.2 1.7-1.2h59.6c0.8 0 1.4 0.5 1.7 1.1l26.8 64.6c0.2 0.5 0.2 1.1-0.1 1.6zm-48.6 5.1q-4.8 0.2-9.6 0.2-4.6 0-9.2-0.2c2.1 4.4 3.1 9.1 3 13.9 0 2.8-0.4 5.8-1.2 8.7-0.8 2.9-1.9 6-3.3 9-1.4 2.9-2.4 5.7-3.1 8.5-1.1 4.7-1.3 8.9-0.5 12.3q0.6 2.6 1.9 4.7 1.1 1.9 2.9 3.4h20.1q1.7-1.5 2.9-3.4 1.3-2.1 1.9-4.7c0.7-3.4 0.6-7.6-0.6-12.3-0.7-2.8-1.7-5.6-3.1-8.5-1.4-3.1-2.5-6.1-3.3-9-0.7-2.9-1.1-5.9-1.2-8.7 0-4.8 1-9.5 3-13.9zm44.5-7.5l-25.5-61.2h-57.1l-24.5 61.2c8.4 1.3 16.9 2.3 25.3 2.9 6 0.5 12.2 0.8 18.3 1h19c6.1-0.2 12.3-0.5 18.5-1 8.6-0.6 17.3-1.6 26-2.9z"/></svg>