<svg version="1.2" xmlns="http://www.w3.org/2000/svg" viewBox="0 0 160 138" width="160" height="138"><style>.a{fill:#fff}</style><path fill-rule="evenodd" class="a" d="m159.3 60.9q-0.3 2.7-1.7 5.7-0.2 0.4-0.4 0.8c-0.8 1.6-1.6 3.2-2.2 4.8-3.3 8.1-5.8 15.8-7.7 23.1-1.9 7.7-3.1 15.3-3.5 22.4q0 0.2 0 0.3v8.3c0 1-0.7 1.8-1.7 1.8h-9.6v7.3c0 1-0.7 1.8-1.7 1.8h-10.3c-0.9 0-1.7-0.8-1.7-1.8v-7.3h-79v7.3c0 1-0.8 1.8-1.8 1.8h-10.2c-1 0-1.8-0.8-1.8-1.8v-7.3h-7.9c-0.9 0-1.7-0.8-1.7-1.8v-8.3q0-0.1 0-0.3c-0.4-7.1-1.6-14.7-3.5-22.4-1.9-7.3-4.4-15.1-7.7-23.1-0.6-1.5-1.4-3.1-2.1-4.6q-0.2-0.5-0.5-1-1.4-3-1.7-5.7-0.4-3 0.7-5.6 0.7-1.8 2.2-3.4 1.3-1.3 3.1-2.3 0 0 0 0 2.3-1.2 4.4-1.6 2.3-0.5 4.4-0.1 2.4 0.5 4.5 2.1v-6.4c0-5.8 1.2-11.4 3.4-16.7 2.2-5.1 5.3-9.7 9.2-13.7 4-3.9 8.6-7 13.7-9.2 5.3-2.2 10.9-3.4 16.7-3.4h32.1c5.8 0 11.4 1.2 16.7 3.4 5.2 2.2 9.8 5.3 13.7 9.2 4 4 7.1 8.6 9.2 13.7 2.3 5.3 3.4 10.9 3.4 16.7v7.9q0.4-0.4 0.9-0.8 2.1-1.9 4.4-2.6 2.3-0.7 4.9-0.2 2.3 0.4 4.8 1.7 0 0 0 0c2.5 1.3 4.4 3.4 5.3 5.7q1.1 2.6 0.7 5.6zm-123.1 67.9h-6.7v4.8h6.7zm92.8 0h-6.7v4.9h6.7zm-1.6-43.6c-11.5-4.6-23.5-7.5-35.8-8.6-10.2-0.9-20.6-0.5-30.9 1-9.2 1.4-16.6 3.5-21.2 5-3.2 1-5.4 2-6.7 2.5 0.7 7.3 1.1 15.9 1.2 26.4q0 0 0 0 0 2.4 0 4.7h92.2q0-2.3 0-4.7c0.1-10.5 0.5-19.1 1.2-26.3zm-103.6-31.2q0 0 0 0 0 0.1 0.1 0.1 0 0 0 0.1 0.1 0 0.1 0.1 0 0 0 0 0.1 0.1 0.1 0.2 0 0 0.1 0 0 0.1 0.1 0.2 0 0 0 0 0 0.1 0.1 0.2 0 0 0 0 0.1 0.1 0.1 0.2 0 0 0 0 0.1 0.1 0.1 0.2 0.1 0.1 0.1 0.1 0 0.1 0.1 0.2c3.4 5.2 5.8 12.8 7.2 23.3q0.2 1.2 0.4 2.5c1.4-0.5 3.3-1.3 5.8-2.1 4.8-1.6 12.4-3.8 21.8-5.2 10.6-1.6 21.3-1.9 31.8-1 12.4 1.1 24.5 3.9 36 8.4q0.1-1.1 0.3-2.1c1.4-10 3.6-17.5 6.7-22.8v-12.9c0-5.3-1.1-10.5-3.1-15.4-2-4.7-4.9-8.9-8.5-12.5-3.6-3.6-7.8-6.5-12.5-8.5-4.9-2-10.1-3.1-15.4-3.1h-32.1c-5.3 0-10.5 1.1-15.3 3.1-4.7 2-8.9 4.9-12.6 8.5-3.6 3.6-6.4 7.8-8.4 12.5-2.1 4.9-3.1 10.1-3.1 15.4zm-7.5 40.5c1.9 7.5 3.1 14.7 3.5 21.7h10.6c-0.1-13.2-0.8-24.5-1.9-33.6-1.4-12.1-3.7-20.5-6.7-25.1q0 0 0-0.1-0.7-1.1-1.2-1.8c-3.3-4.6-7-5.4-12-2.8-1.8 1-3.1 2.3-3.7 3.9q0 0 0 0c-1 2.4-0.7 5.2 0.9 8.5q0.3 0.5 0.5 0.9c0.7 1.6 1.5 3.2 2.2 4.9 3.3 8.1 5.9 16.1 7.8 23.5zm124 25.4h-120.4v4.8h120.4zm15-63.2c-0.6-1.6-1.9-3-3.7-3.9-2.7-1.4-4.9-1.8-7-1.2-1 0.3-2.1 0.9-3 1.8q-1.7 1.4-3.2 4 0 0 0 0l-0.4 0.6c-2.8 4.7-5 13.1-6.4 25.1-1 9-1.7 20.1-1.8 33h10.6c0.4-6.9 1.6-14.2 3.5-21.6 1.9-7.4 4.5-15.4 7.8-23.5q0 0 0 0c0.7-1.8 1.5-3.5 2.3-5.1q0.2-0.4 0.4-0.7 0 0 0 0c1.6-3.3 1.9-6.1 0.9-8.5z"/></svg>