<svg version="1.2" xmlns="http://www.w3.org/2000/svg" viewBox="0 0 91 137" width="91" height="137"><style>.a{fill:#fff}</style><path fill-rule="evenodd" class="a" d="m90.4 2.2v126.9c0 1-0.8 1.8-1.8 1.8h-7.4v6.1h-10.6v-6.1h-52.7v5.9h-10.5v-5.9h-5.6c-1 0-1.8-0.8-1.8-1.8v-126.9c0-1 0.8-1.8 1.8-1.8h86.8c1 0 1.8 0.8 1.8 1.8zm-86.8 125.1h40v-123.3h-40zm83.2-123.2h-39.6v123.2h39.6z"/><path class="a" d="m34.1 62c-2 0-3.6 1.6-3.6 3.6 0 2.1 1.6 3.7 3.6 3.7 2 0 3.6-1.6 3.6-3.7 0-2-1.6-3.6-3.6-3.6z"/><path class="a" d="m56.1 69.3c2 0 3.6-1.6 3.6-3.7 0-2-1.6-3.6-3.6-3.6-2 0-3.6 1.6-3.6 3.6 0 2.1 1.6 3.7 3.6 3.7z"/></svg>